<?xml version="1.0" encoding="utf-8"?>
<!-- Generator: Adobe Illustrator 23.0.3, SVG Export Plug-In . SVG Version: 6.00 Build 0)  -->
<svg version="1.1" id="Layer_1" xmlns="http://www.w3.org/2000/svg" xmlns:xlink="http://www.w3.org/1999/xlink" x="0px" y="0px"
	 viewBox="0 0 100 100" style="enable-background:new 0 0 100 100;" xml:space="preserve">
<style type="text/css">
	.st0{fill:#45BFBA;}
	.st1{fill:#EA733A;}
</style>
<g>
	<g>
		<path class="st0" d="M73.49,29.08c-0.36,0-0.73-0.1-1.07-0.3l-29.4-18.13c-0.96-0.59-1.25-1.85-0.66-2.8
			c0.59-0.96,1.84-1.26,2.8-0.66l29.4,18.13c0.96,0.59,1.26,1.85,0.66,2.8C74.84,28.73,74.17,29.08,73.49,29.08z"/>
	</g>
	<g>
		<path class="st1" d="M91.55,92.63l-73.33-4.07c-2.69,0-4.89-2.2-4.89-4.89V33.56c0-2.69,2.2-4.89,4.89-4.89h73.33
			c2.69,0,4.89,2.2,4.89,4.89v54.18C96.44,90.43,94.24,92.63,91.55,92.63z"/>
	</g>
	<g>
		<path d="M86.26,88.14c-0.04,0-0.07,0-0.11,0l-75.72-4.07c-3.79-0.03-6.87-3.13-6.87-6.92V36c0-3.8,3.07-6.89,6.87-6.93L86.15,25
			c0.04,0,0.07,0,0.11,0c3.82,0,6.93,3.11,6.93,6.93v49.29C93.18,85.04,90.07,88.14,86.26,88.14z M86.3,29.08l-75.71,4.07
			c-0.04,0-0.07,0-0.11,0c-1.57,0-2.85,1.28-2.85,2.85v41.14c0,1.57,1.28,2.85,2.85,2.85c0.04,0,0.07,0,0.11,0l75.71,4.07
			c1.55-0.03,2.8-1.29,2.8-2.85V31.93C89.11,30.37,87.85,29.1,86.3,29.08z"/>
	</g>
	<g>
		<g>
			<path class="st0" d="M48.37,57.59c-0.32,0-0.64-0.13-0.86-0.36c-0.06-0.06-0.11-0.12-0.15-0.19c-0.04-0.07-0.08-0.13-0.11-0.21
				c-0.03-0.07-0.05-0.15-0.07-0.23c-0.02-0.08-0.02-0.16-0.02-0.24c0-0.32,0.13-0.64,0.36-0.86c0.46-0.46,1.28-0.46,1.73,0
				c0.23,0.23,0.36,0.54,0.36,0.86c0,0.08-0.01,0.16-0.02,0.24c-0.02,0.08-0.04,0.15-0.07,0.23c-0.03,0.07-0.07,0.14-0.11,0.21
				c-0.04,0.07-0.09,0.13-0.15,0.19c-0.06,0.06-0.12,0.11-0.18,0.15c-0.07,0.04-0.14,0.08-0.21,0.11c-0.07,0.03-0.15,0.05-0.23,0.07
				C48.53,57.58,48.45,57.59,48.37,57.59z"/>
		</g>
		<g>
			<path class="st0" d="M72.64,56.37c0-0.68,0.55-1.22,1.22-1.22l0,0c0.68,0,1.22,0.55,1.22,1.22l0,0c0,0.68-0.55,1.22-1.22,1.22
				l0,0C73.18,57.59,72.64,57.05,72.64,56.37z M68.39,56.37c0-0.68,0.55-1.22,1.22-1.22l0,0c0.68,0,1.22,0.55,1.22,1.22l0,0
				c0,0.68-0.55,1.22-1.22,1.22l0,0C68.94,57.59,68.39,57.05,68.39,56.37z M64.14,56.37c0-0.68,0.55-1.22,1.22-1.22l0,0
				c0.68,0,1.22,0.55,1.22,1.22l0,0c0,0.68-0.55,1.22-1.22,1.22l0,0C64.69,57.59,64.14,57.05,64.14,56.37z M59.9,56.37
				c0-0.68,0.55-1.22,1.22-1.22l0,0c0.68,0,1.23,0.55,1.23,1.22l0,0c0,0.68-0.55,1.22-1.23,1.22l0,0
				C60.44,57.59,59.9,57.05,59.9,56.37z M55.64,56.37c0-0.68,0.55-1.22,1.23-1.22l0,0c0.67,0,1.22,0.55,1.22,1.22l0,0
				c0,0.68-0.55,1.22-1.22,1.22l0,0C56.19,57.59,55.64,57.05,55.64,56.37z M51.4,56.37c0-0.68,0.55-1.22,1.22-1.22l0,0
				c0.68,0,1.22,0.55,1.22,1.22l0,0c0,0.68-0.55,1.22-1.22,1.22l0,0C51.94,57.59,51.4,57.05,51.4,56.37z"/>
		</g>
		<g>
			<path class="st0" d="M78.11,57.59c-0.08,0-0.16-0.01-0.24-0.02c-0.08-0.02-0.15-0.04-0.23-0.07c-0.07-0.03-0.14-0.07-0.21-0.11
				c-0.07-0.04-0.13-0.09-0.18-0.15c-0.23-0.23-0.36-0.54-0.36-0.86s0.13-0.64,0.36-0.86c0.06-0.06,0.12-0.11,0.18-0.15
				c0.07-0.04,0.14-0.08,0.21-0.11c0.07-0.03,0.15-0.05,0.23-0.07c0.4-0.08,0.82,0.05,1.1,0.33c0.23,0.23,0.36,0.54,0.36,0.86
				S79.2,57,78.97,57.23c-0.06,0.06-0.12,0.11-0.19,0.15c-0.07,0.04-0.13,0.08-0.21,0.11c-0.07,0.03-0.15,0.05-0.23,0.07
				C78.27,57.58,78.19,57.59,78.11,57.59z"/>
		</g>
	</g>
	<g>
		<g>
			<path class="st0" d="M48.78,52.7c-0.32,0-0.64-0.13-0.86-0.36c-0.23-0.23-0.36-0.54-0.36-0.86s0.13-0.64,0.36-0.86
				c0.45-0.46,1.27-0.46,1.73,0c0.23,0.23,0.36,0.54,0.36,0.86s-0.13,0.64-0.36,0.86c-0.06,0.06-0.12,0.11-0.18,0.15
				c-0.07,0.04-0.14,0.08-0.21,0.11c-0.07,0.03-0.15,0.05-0.23,0.07C48.94,52.69,48.86,52.7,48.78,52.7z"/>
		</g>
		<g>
			<path class="st0" d="M71.65,51.48c0-0.68,0.55-1.22,1.22-1.22l0,0c0.68,0,1.22,0.55,1.22,1.22l0,0c0,0.68-0.55,1.22-1.22,1.22
				l0,0C72.19,52.7,71.65,52.16,71.65,51.48z M67.63,51.48c0-0.68,0.55-1.22,1.23-1.22l0,0c0.67,0,1.22,0.55,1.22,1.22l0,0
				c0,0.68-0.55,1.22-1.22,1.22l0,0C68.18,52.7,67.63,52.16,67.63,51.48z M63.62,51.48c0-0.68,0.55-1.22,1.22-1.22l0,0
				c0.67,0,1.22,0.55,1.22,1.22l0,0c0,0.68-0.55,1.22-1.22,1.22l0,0C64.16,52.7,63.62,52.16,63.62,51.48z M59.6,51.48
				c0-0.68,0.55-1.22,1.22-1.22l0,0c0.68,0,1.22,0.55,1.22,1.22l0,0c0,0.68-0.55,1.22-1.22,1.22l0,0
				C60.15,52.7,59.6,52.16,59.6,51.48z M55.59,51.48c0-0.68,0.55-1.22,1.22-1.22l0,0c0.68,0,1.22,0.55,1.22,1.22l0,0
				c0,0.68-0.55,1.22-1.22,1.22l0,0C56.13,52.7,55.59,52.16,55.59,51.48z M51.57,51.48c0-0.68,0.55-1.22,1.22-1.22l0,0
				c0.67,0,1.22,0.55,1.22,1.22l0,0c0,0.68-0.55,1.22-1.22,1.22l0,0C52.12,52.7,51.57,52.16,51.57,51.48z"/>
		</g>
		<g>
			<path class="st0" d="M76.89,52.7c-0.32,0-0.64-0.13-0.86-0.36c-0.23-0.23-0.36-0.54-0.36-0.86c0-0.08,0.01-0.16,0.02-0.24
				c0.02-0.08,0.04-0.15,0.07-0.23c0.03-0.07,0.07-0.14,0.11-0.21c0.04-0.07,0.1-0.13,0.15-0.18c0.29-0.29,0.7-0.42,1.1-0.33
				c0.08,0.02,0.15,0.04,0.23,0.07c0.07,0.03,0.14,0.07,0.21,0.11c0.07,0.04,0.13,0.09,0.18,0.15c0.06,0.06,0.11,0.12,0.15,0.18
				c0.04,0.07,0.08,0.14,0.11,0.21c0.03,0.07,0.05,0.15,0.07,0.23c0.02,0.08,0.02,0.16,0.02,0.24c0,0.32-0.13,0.64-0.36,0.86
				c-0.06,0.06-0.12,0.11-0.19,0.15c-0.07,0.04-0.13,0.08-0.21,0.11c-0.07,0.03-0.15,0.05-0.23,0.07
				C77.05,52.69,76.97,52.7,76.89,52.7z"/>
		</g>
	</g>
	<g>
		<g>
			<path class="st0" d="M51.63,47.81c-0.32,0-0.64-0.13-0.86-0.36c-0.23-0.23-0.36-0.54-0.36-0.86c0-0.08,0.01-0.16,0.02-0.24
				c0.02-0.08,0.04-0.15,0.07-0.23c0.03-0.07,0.07-0.14,0.11-0.21c0.04-0.07,0.09-0.13,0.15-0.18c0.29-0.29,0.7-0.42,1.1-0.33
				c0.08,0.02,0.15,0.04,0.23,0.07c0.07,0.03,0.14,0.07,0.21,0.11c0.07,0.04,0.13,0.09,0.19,0.15c0.06,0.06,0.11,0.12,0.15,0.18
				c0.04,0.07,0.08,0.14,0.11,0.21c0.03,0.07,0.05,0.15,0.07,0.23c0.02,0.08,0.02,0.16,0.02,0.24c0,0.32-0.13,0.64-0.36,0.86
				C52.26,47.68,51.95,47.81,51.63,47.81z"/>
		</g>
		<g>
			<path class="st0" d="M69.08,46.59c0-0.68,0.55-1.22,1.22-1.22l0,0c0.68,0,1.22,0.55,1.22,1.22l0,0c0,0.68-0.55,1.22-1.22,1.22
				l0,0C69.63,47.81,69.08,47.27,69.08,46.59z M65.35,46.59c0-0.68,0.55-1.22,1.22-1.22l0,0c0.67,0,1.22,0.55,1.22,1.22l0,0
				c0,0.68-0.55,1.22-1.22,1.22l0,0C65.89,47.81,65.35,47.27,65.35,46.59z M61.61,46.59c0-0.68,0.55-1.22,1.22-1.22l0,0
				c0.68,0,1.22,0.55,1.22,1.22l0,0c0,0.68-0.55,1.22-1.22,1.22l0,0C62.16,47.81,61.61,47.27,61.61,46.59z M57.87,46.59
				c0-0.68,0.55-1.22,1.22-1.22l0,0c0.68,0,1.22,0.55,1.22,1.22l0,0c0,0.68-0.55,1.22-1.22,1.22l0,0
				C58.42,47.81,57.87,47.27,57.87,46.59z M54.14,46.59c0-0.68,0.55-1.22,1.22-1.22l0,0c0.67,0,1.22,0.55,1.22,1.22l0,0
				c0,0.68-0.55,1.22-1.22,1.22l0,0C54.69,47.81,54.14,47.27,54.14,46.59z"/>
		</g>
		<g>
			<path class="st0" d="M74.03,47.81c-0.32,0-0.64-0.13-0.86-0.36c-0.23-0.23-0.36-0.54-0.36-0.86c0-0.32,0.13-0.64,0.36-0.86
				c0.06-0.06,0.12-0.11,0.18-0.15c0.07-0.04,0.14-0.08,0.21-0.11c0.07-0.03,0.15-0.05,0.23-0.07c0.4-0.08,0.82,0.05,1.1,0.33
				c0.23,0.23,0.36,0.54,0.36,0.86c0,0.32-0.13,0.64-0.36,0.86C74.67,47.68,74.36,47.81,74.03,47.81z"/>
		</g>
	</g>
	<g>
		<g>
			<path class="st0" d="M51.63,67.37c-0.32,0-0.64-0.13-0.86-0.36c-0.23-0.23-0.36-0.54-0.36-0.86c0-0.32,0.13-0.64,0.36-0.86
				c0.46-0.46,1.27-0.46,1.73,0c0.23,0.23,0.36,0.54,0.36,0.86c0,0.32-0.13,0.64-0.36,0.86C52.26,67.24,51.95,67.37,51.63,67.37z"/>
		</g>
		<g>
			<path class="st0" d="M69.08,66.15c0-0.68,0.55-1.22,1.22-1.22l0,0c0.68,0,1.22,0.55,1.22,1.22l0,0c0,0.68-0.55,1.22-1.22,1.22
				l0,0C69.63,67.37,69.08,66.82,69.08,66.15z M65.35,66.15c0-0.68,0.55-1.22,1.22-1.22l0,0c0.67,0,1.22,0.55,1.22,1.22l0,0
				c0,0.68-0.55,1.22-1.22,1.22l0,0C65.89,67.37,65.35,66.82,65.35,66.15z M61.61,66.15c0-0.68,0.55-1.22,1.22-1.22l0,0
				c0.68,0,1.22,0.55,1.22,1.22l0,0c0,0.68-0.55,1.22-1.22,1.22l0,0C62.16,67.37,61.61,66.82,61.61,66.15z M57.87,66.15
				c0-0.68,0.55-1.22,1.22-1.22l0,0c0.68,0,1.22,0.55,1.22,1.22l0,0c0,0.68-0.55,1.22-1.22,1.22l0,0
				C58.42,67.37,57.87,66.82,57.87,66.15z M54.14,66.15c0-0.68,0.55-1.22,1.22-1.22l0,0c0.67,0,1.22,0.55,1.22,1.22l0,0
				c0,0.68-0.55,1.22-1.22,1.22l0,0C54.69,67.37,54.14,66.82,54.14,66.15z"/>
		</g>
		<g>
			<path class="st0" d="M74.03,67.37c-0.08,0-0.16-0.01-0.24-0.02c-0.08-0.02-0.15-0.04-0.23-0.07c-0.07-0.03-0.14-0.07-0.21-0.11
				c-0.07-0.04-0.13-0.09-0.18-0.15c-0.06-0.06-0.11-0.12-0.15-0.18c-0.04-0.07-0.08-0.14-0.11-0.21c-0.03-0.07-0.05-0.15-0.07-0.23
				c-0.02-0.08-0.02-0.16-0.02-0.24c0-0.08,0.01-0.16,0.02-0.24c0.02-0.08,0.04-0.15,0.07-0.23c0.03-0.07,0.07-0.14,0.11-0.21
				c0.04-0.07,0.09-0.13,0.15-0.18c0.06-0.06,0.12-0.11,0.18-0.15c0.07-0.04,0.14-0.08,0.21-0.11c0.07-0.03,0.15-0.05,0.23-0.07
				c0.4-0.08,0.82,0.05,1.1,0.33c0.23,0.23,0.36,0.54,0.36,0.86c0,0.08-0.01,0.16-0.02,0.24c-0.02,0.08-0.04,0.15-0.07,0.23
				c-0.03,0.07-0.07,0.14-0.11,0.21c-0.04,0.07-0.09,0.13-0.15,0.18C74.67,67.24,74.36,67.37,74.03,67.37z"/>
		</g>
	</g>
	<g>
		<g>
			<path class="st0" d="M48.78,62.48c-0.08,0-0.16-0.01-0.24-0.02c-0.08-0.02-0.15-0.04-0.23-0.07c-0.07-0.03-0.14-0.07-0.21-0.11
				c-0.07-0.04-0.13-0.09-0.18-0.15c-0.23-0.23-0.36-0.54-0.36-0.86c0-0.08,0.01-0.16,0.02-0.24c0.02-0.08,0.04-0.15,0.07-0.23
				c0.03-0.07,0.07-0.14,0.11-0.21c0.04-0.07,0.09-0.13,0.15-0.18s0.12-0.11,0.18-0.15c0.07-0.04,0.14-0.08,0.21-0.11
				c0.07-0.03,0.15-0.05,0.23-0.07c0.16-0.03,0.32-0.03,0.48,0c0.08,0.02,0.15,0.04,0.23,0.07c0.07,0.03,0.14,0.07,0.21,0.11
				c0.07,0.04,0.13,0.09,0.18,0.15c0.06,0.06,0.11,0.12,0.15,0.18c0.04,0.07,0.09,0.14,0.11,0.21c0.03,0.07,0.05,0.15,0.07,0.23
				C49.99,61.1,50,61.18,50,61.26c0,0.08-0.01,0.16-0.02,0.24c-0.02,0.08-0.04,0.15-0.07,0.23c-0.03,0.07-0.07,0.14-0.11,0.21
				c-0.04,0.07-0.09,0.13-0.15,0.18c-0.06,0.06-0.12,0.11-0.18,0.15c-0.07,0.04-0.14,0.08-0.21,0.11c-0.07,0.03-0.15,0.05-0.23,0.07
				C48.94,62.47,48.86,62.48,48.78,62.48z"/>
		</g>
		<g>
			<path class="st0" d="M71.65,61.26c0-0.68,0.55-1.22,1.22-1.22l0,0c0.68,0,1.22,0.55,1.22,1.22l0,0c0,0.68-0.55,1.22-1.22,1.22
				l0,0C72.19,62.48,71.65,61.93,71.65,61.26z M67.63,61.26c0-0.68,0.55-1.22,1.23-1.22l0,0c0.67,0,1.22,0.55,1.22,1.22l0,0
				c0,0.68-0.55,1.22-1.22,1.22l0,0C68.18,62.48,67.63,61.93,67.63,61.26z M63.62,61.26c0-0.68,0.55-1.22,1.22-1.22l0,0
				c0.67,0,1.22,0.55,1.22,1.22l0,0c0,0.68-0.55,1.22-1.22,1.22l0,0C64.16,62.48,63.62,61.93,63.62,61.26z M59.6,61.26
				c0-0.68,0.55-1.22,1.22-1.22l0,0c0.68,0,1.22,0.55,1.22,1.22l0,0c0,0.68-0.55,1.22-1.22,1.22l0,0
				C60.15,62.48,59.6,61.93,59.6,61.26z M55.59,61.26c0-0.68,0.55-1.22,1.22-1.22l0,0c0.68,0,1.22,0.55,1.22,1.22l0,0
				c0,0.68-0.55,1.22-1.22,1.22l0,0C56.13,62.48,55.59,61.93,55.59,61.26z M51.57,61.26c0-0.68,0.55-1.22,1.22-1.22l0,0
				c0.67,0,1.22,0.55,1.22,1.22l0,0c0,0.68-0.55,1.22-1.22,1.22l0,0C52.12,62.48,51.57,61.93,51.57,61.26z"/>
		</g>
		<g>
			<path class="st0" d="M76.89,62.48c-0.32,0-0.64-0.13-0.86-0.36c-0.23-0.23-0.36-0.54-0.36-0.86s0.13-0.64,0.36-0.86
				c0.45-0.46,1.28-0.46,1.73,0c0.23,0.23,0.36,0.54,0.36,0.86c0,0.08-0.01,0.16-0.02,0.24c-0.02,0.08-0.04,0.15-0.07,0.23
				c-0.03,0.07-0.07,0.14-0.11,0.21c-0.04,0.07-0.09,0.13-0.15,0.18c-0.06,0.06-0.12,0.11-0.19,0.15c-0.07,0.04-0.13,0.08-0.21,0.11
				c-0.07,0.03-0.15,0.05-0.23,0.07C77.05,62.47,76.97,62.48,76.89,62.48z"/>
		</g>
	</g>
	<g>
		<path d="M63.04,73.28c-9.32,0-16.91-7.58-16.91-16.91c0-9.32,7.58-16.91,16.91-16.91s16.91,7.58,16.91,16.91
			C79.94,65.69,72.36,73.28,63.04,73.28z M63.04,43.54c-7.08,0-12.83,5.76-12.83,12.83S55.96,69.2,63.04,69.2
			s12.83-5.76,12.83-12.83S70.11,43.54,63.04,43.54z"/>
	</g>
	<g>
		<path class="st0" d="M35.13,47.2H16.39c-1.12,0-2.04-0.91-2.04-2.04c0-1.12,0.91-2.04,2.04-2.04h18.74c1.12,0,2.04,0.91,2.04,2.04
			C37.17,46.29,36.26,47.2,35.13,47.2z"/>
	</g>
	<g>
		<path class="st0" d="M35.33,58.61H16.6c-1.12,0-2.04-0.91-2.04-2.04c0-1.13,0.91-2.04,2.04-2.04h18.74c1.12,0,2.04,0.91,2.04,2.04
			C37.37,57.7,36.46,58.61,35.33,58.61z"/>
	</g>
	<g>
		<path class="st0" d="M35.33,70.02H16.6c-1.12,0-2.04-0.91-2.04-2.04s0.91-2.04,2.04-2.04h18.74c1.12,0,2.04,0.91,2.04,2.04
			S36.46,70.02,35.33,70.02z"/>
	</g>
</g>
</svg>
